<?xml version="1.0" standalone="no"?>
<!DOCTYPE svg PUBLIC "-//W3C//DTD SVG 20010904//EN"
 "http://www.w3.org/TR/2001/REC-SVG-20010904/DTD/svg10.dtd">
<svg version="1.0" xmlns="http://www.w3.org/2000/svg"
 width="770.000000pt" height="562.000000pt" viewBox="0 0 770.000000 562.000000"
 preserveAspectRatio="xMidYMid meet">

<g transform="translate(0.000000,562.000000) scale(0.100000,-0.100000)"
fill="#000000" stroke="none">
<path d="M2017 3233 l-158 -4 -119 -180 -118 -181 -106 161 c-58 89 -110 170
-116 181 -10 19 -22 20 -165 20 -85 0 -155 -2 -155 -5 0 -3 92 -143 205 -313
l205 -307 0 -257 0 -258 130 0 130 0 0 255 0 255 156 235 157 234 21 -41 c28
-56 75 -81 140 -75 43 4 55 10 88 45 34 37 38 46 38 96 0 45 -5 60 -27 87 -31
37 -80 60 -120 57 -15 -1 -99 -4 -186 -5z"/>
<path d="M4930 3218 c-52 -36 -73 -71 -73 -121 0 -91 67 -152 157 -144 43 4
55 10 88 45 34 37 38 46 38 96 0 45 -5 60 -27 87 -51 60 -126 75 -183 37z"/>
<path d="M4220 2660 l0 -570 450 0 450 0 0 123 0 122 26 -55 c39 -84 86 -135
159 -171 121 -59 250 -49 351 27 l44 34 0 -40 0 -40 120 0 120 0 0 118 0 117
22 -45 c96 -195 395 -271 613 -156 108 57 179 153 195 264 27 194 -94 364
-297 417 -106 28 -248 13 -343 -35 -59 -30 -137 -107 -164 -162 l-26 -52 0
122 0 122 -125 0 -125 0 0 -30 0 -30 -46 30 c-172 108 -405 36 -495 -153 l-29
-62 0 123 0 122 -125 0 -125 0 0 -240 0 -240 -195 0 -195 0 0 455 0 455 -130
0 -130 0 0 -570z m1407 -76 c53 -40 68 -71 68 -139 0 -105 -55 -160 -160 -160
-68 0 -99 15 -137 66 -57 76 -22 205 67 245 41 20 129 13 162 -12z m808 1 c52
-30 75 -75 75 -147 0 -158 -208 -220 -297 -88 -31 45 -32 138 -2 187 44 72
147 94 224 48z"/>
<path d="M2760 2813 c-36 -12 -97 -46 -117 -66 l-23 -20 0 36 0 37 -125 0
-125 0 0 -355 0 -355 125 0 125 0 0 222 0 221 26 35 c27 35 77 62 115 62 43 0
91 -32 110 -74 16 -36 19 -68 19 -253 l0 -213 120 0 119 0 3 98 3 97 27 -46
c34 -58 98 -116 157 -142 93 -41 262 -32 337 19 l37 25 -6 -60 c-9 -106 -69
-156 -182 -154 -72 1 -101 12 -149 53 l-35 32 -96 -46 c-57 -27 -95 -51 -95
-59 0 -28 76 -112 127 -139 135 -74 358 -77 495 -7 50 26 115 84 136 123 43
80 45 96 49 514 l5 402 -126 0 -126 0 0 -29 0 -29 -71 36 c-67 35 -77 37 -163
37 -71 0 -101 -5 -137 -22 -61 -28 -124 -86 -158 -145 l-28 -48 -14 42 c-22
68 -93 132 -174 157 -63 20 -150 26 -185 14z m855 -228 c52 -30 75 -75 75
-147 0 -158 -208 -220 -297 -88 -31 45 -32 138 -2 187 44 72 147 94 224 48z"/>
<path d="M2080 2445 l0 -355 125 0 125 0 0 355 0 355 -125 0 -125 0 0 -355z"/>
</g>
</svg>
